<svg xmlns="http://www.w3.org/2000/svg" width="24" height="24" viewBox="0 0 24 24">
  <g id="Approved" transform="translate(-1 -1)">
    <path id="Path_205208" data-name="Path 205208" d="M17.59,10.162a1.091,1.091,0,0,0-1.543-1.543l-5.1,5.1L8.877,11.58a1.091,1.091,0,1,0-1.572,1.513l2.836,2.945a1.091,1.091,0,0,0,1.557.015Z" transform="translate(0.545 0.664)"/>
    <path id="Path_205209" data-name="Path 205209" d="M13,1A12,12,0,1,0,25,13,12,12,0,0,0,13,1ZM3.182,13A9.818,9.818,0,1,1,13,22.818,9.818,9.818,0,0,1,3.182,13Z" fill-rule="evenodd"/>
  </g>
</svg>
