<svg id="Pending" xmlns="http://www.w3.org/2000/svg" width="24" height="24" viewBox="0 0 24 24">
  <g id="Group_1261" data-name="Group 1261">
    <g id="Group_1260" data-name="Group 1260">
      <path id="Path_205203" data-name="Path 205203" d="M415.961,376.912a.938.938,0,0,0-1.312.193c-.17.228-.352.453-.541.666a.937.937,0,1,0,1.4,1.242c.224-.253.439-.518.64-.789A.937.937,0,0,0,415.961,376.912Z" transform="translate(-394.473 -359.068)"/>
      <path id="Path_205204" data-name="Path 205204" d="M463.891,286.446a.938.938,0,0,0-1.115.717c-.061.278-.134.557-.218.829a.937.937,0,1,0,1.791.553c.1-.322.187-.653.258-.983A.938.938,0,0,0,463.891,286.446Z" transform="translate(-440.835 -272.998)"/>
      <path id="Path_205205" data-name="Path 205205" d="M335.343,442.312c-.249.139-.507.269-.766.386a.938.938,0,1,0,.772,1.709c.308-.139.613-.293.908-.458a.937.937,0,0,0-.914-1.637Z" transform="translate(-318.368 -421.466)"/>
      <path id="Path_205206" data-name="Path 205206" d="M160.516,76.938v7.112l-3.438,3.438a.938.938,0,0,0,1.326,1.326l3.712-3.712a.938.938,0,0,0,.275-.663v-7.5a.938.938,0,0,0-1.875,0Z" transform="translate(-149.453 -72.438)"/>
      <path id="Path_205207" data-name="Path 205207" d="M23.063,2.016a.937.937,0,0,0-.937.938v2.6A12,12,0,1,0,12,24h.047c.338,0,.679-.014,1.014-.042a.937.937,0,1,0-.156-1.868c-.283.024-.572.036-.858.036H12A10.125,10.125,0,1,1,20.716,6.844H18.138a.938.938,0,0,0,0,1.875H21a2.982,2.982,0,0,0,1.56-.438.936.936,0,0,0,.084-.054A3,3,0,0,0,24,5.719V2.953A.937.937,0,0,0,23.063,2.016Z"/>
    </g>
  </g>
</svg>
